# xmcd
#
# Track frame offsets:
#	182
#	24727
#	44042
#	65035
#	83667
#	105295
#	128182
#	147887
#	170735
#	188755
#
# Disc length: 2661 seconds
#
# Revision: 1
# Processed by: cddbd v1.4PL0 Copyright (c) Steve Scherf et al.
# Submitted via: audiograbber 1.81.03
#
DISCID=8b0a630a
DTITLE=Enzo Avitabile - Easy
DYEAR=1994
DGENRE=
TTITLE0=Dies Irae
TTITLE1=Se Mai
TTITLE2=A' Livella
TTITLE3=Easy
TTITLE4=Ti Ricordi Joe
TTITLE5=Leave Me or Love Me
TTITLE6=Black Tarantella
TTITLE7=Luce di Luna
TTITLE8=Pura
TTITLE9=Dies Irae [Instrumental]
EXTD=
EXTT0=
EXTT1=
EXTT2=
EXTT3=
EXTT4=
EXTT5=
EXTT6=
EXTT7=
EXTT8=
EXTT9=
PLAYORDER=
